<svg width="500" height="120" xmlns="http://www.w3.org/2000/svg">
 <g>
  <title>background</title>
  <rect x="-1" y="-1" width="502" height="122" id="canvas_background" fill="none"/>
 </g>

 <g>
  <title>Layer 1</title>
  <g id="svg-content">
   <g id="svg-logo" class="svg-element" transform="matrix(0.5599999204952777,0,0,0.560000188427489,110.99850463867188,192.55319701908104) ">
    <g id="XMLID_330_">
     <path id="XMLID_17824_" fill="#ffff00" d="m-81.28308,-197.8413c16.7,-1.5 31.6,-1.9 46.1,-4.6c13.6,-2.5 15.3,-10.1 4.4,-18.8c-8.4,-6.7 -17.9,-12.9 -28,-16.3c-33.6,-11.1 -67.6,-21.1 -101.5,-31c-10.8,-3.1 -16,1.3 -16,12.8c-0.2,28.6 -0.2,57.3 0,85.9c0.1,13.5 8,21.8 21.5,21.9c43.9,0.3 87.8,0.3 131.6,0c13.4,-0.1 21.4,-8.6 21.5,-21.9c0.1,-43.6 0.1,-87.1 0,-130.7c0,-13.6 -8.4,-22.4 -22.1,-22.4c-43.6,-0.2 -87.1,-0.3 -130.7,0.2c-5.5,0.1 -11.1,3.3 -16.4,5.6c-5.9,2.5 -12.1,4.4 -15.2,-2.8c-2.9,-7 1.9,-11.4 8.4,-12.9c5.7,-1.3 11.7,-2 17.5,-2c48,-0.1 95.9,-0.1 143.8,0c19.3,0 27.1,8 27.1,27.3c0,48.2 0,96.5 0,144.7c0,19 -7.7,26.8 -26.4,26.8c-48.9,0 -97.7,0 -146.6,0c-18.4,0.1 -26.9,-8.3 -27,-26.6c0,-32.7 0,-65.3 0.1,-98c0,-17.2 4.2,-21.9 21.3,-19.2c46.9,7.3 92.3,20.3 134.1,43.3c7,3.9 13.3,10.4 17.8,17.1c6.5,9.7 3,21.3 -7.9,25.7c-20.1,8.1 -41.3,8.2 -62.4,5.3c-6.7,-0.9 -9.5,-6.5 -7.4,-12.7c3.8,-11.2 8.2,-22.1 13,-32.9c0.8,-1.8 5,-2.2 7.6,-3.2c1,2.9 3.5,6.2 2.8,8.6c-2.5,8 -6.2,15.6 -9.3,23.4c-0.5,1.3 -0.6,2.8 -1.7,7.4z"/>
     <path id="XMLID_17823_" fill="#ffff00" d="m-145.88308,-185.3413c6.9,-20.6 13.9,-41.2 20.7,-61.8c1.6,-4.8 4.4,-8.6 9.3,-5.8c2,1.2 3.1,7.3 2,10.1c-7.4,18.8 -15.4,37.4 -23.5,55.9c-0.9,2 -3.9,3.1 -5.9,4.7c-1,-1.1 -1.8,-2.1 -2.6,-3.1z"/>
    </g>
   </g>
   <g id="svg-name" class="svg-element" transform="matrix(0.9900398951841262,0,0,1.6384750657639873,237.75693272671805,234.15422161610212) ">
    <g fill="#f2f2f2" id="svg_1">
     <path d="m-78.93489,-74.71847l7.42,0l0,-37.01l-9.28,0l0,23.14l-14.65,-23.14l-7.42,0l0,37.01l9.28,0l0,-23.54l14.65,23.54zm15.82,0l26.36,0l0,-3.81l-16.79,0l0,-7.13l16.79,0l0,-10.74l0,0q0.05,-3.13 -1.14,-4.32l0,0l0,0q-1.2,-1.2 -4.33,-1.15l0,0l-20.89,0l0,27.15m16.89,-14.75l-7.32,0l0,-8.59l5.37,0l0,0q2.15,-0.2 1.95,1.95l0,0l0,6.64zm17.19,14.75l33.4,0l0,-27.15l-9.28,0l0,23.34l-2.74,0l0,-23.34l-9.37,0l0,23.34l-2.74,0l0,-23.34l-9.27,0l0,27.15zm41.21,0l29,0l0,-3.81l-19.43,0l0,-29.4l19.43,0l0,-3.8l-29,0l0,37.01zm37.11,0l9.57,0l0,-33.5l-9.57,0l0,33.5zm17.09,0l25.49,0l0,-21.68l0,0q0.04,-3.13 -1.15,-4.32l0,0l0,0q-1.2,-1.2 -4.32,-1.15l0,0l-20.02,0l0,27.15m16.01,-3.81l-6.54,0l0,-19.53l4.59,0l0,0q2.15,-0.2 1.95,1.95l0,0l0,17.58zm17.78,3.81l25.68,0l0,-27.15l-9.57,0l0,23.34l-6.54,0l0,-23.34l-9.57,0l0,27.15zm33.98,0l25.49,0l0,-32.33l-9.47,0l0,6.25l-16.02,0l0,26.08m9.57,-22.27l6.45,0l0,18.46l-6.45,0l0,-18.46zm33.79,22.27l0,-15.04l20.61,0l0,-16.51l0,0q0.04,-3.12 -1.15,-4.32l0,0l0,0q-1.2,-1.19 -4.32,-1.14l0,0l-24.71,0l0,37.01l9.57,0m11.04,-18.85l-11.04,0l0,-14.36l9.08,0l0,0q2.15,-0.19 1.96,1.96l0,0l0,12.4zm17.96,18.85l25.49,0l0,-32.33l-9.47,0l0,6.25l-16.02,0l0,26.08m9.57,-22.27l6.45,0l0,18.46l-6.45,0l0,-18.46zm36.24,1.37l0,-7.91l6.64,0l0,-3.81l-16.31,0l0,11.72l-4.59,0l0,3.81l4.59,0l0,17.09l9.67,0l0,-17.09l6.64,0l0,-3.81l-6.64,0z" id="svg_2"/>
    </g>
   </g>
  </g>
 </g>
</svg>